<?xml version="1.0" standalone="no"?>
<!DOCTYPE svg PUBLIC "-//W3C//DTD SVG 20010904//EN"
 "http://www.w3.org/TR/2001/REC-SVG-20010904/DTD/svg10.dtd">
<svg version="1.0" xmlns="http://www.w3.org/2000/svg"
 width="439.000000pt" height="100.000000pt" viewBox="0 0 439.000000 100.000000"
 preserveAspectRatio="xMidYMid meet">

<g transform="translate(0.000000,100.000000) scale(0.100000,-0.100000)"
fill="#000000" stroke="none">
<path d="M470 985 c0 -33 57 -30 68 3 2 8 -9 12 -32 12 -26 0 -36 -4 -36 -15z"/>
<path d="M3237 982 c-35 -39 -12 -68 32 -40 15 9 28 9 59 0 61 -19 99 -15 116
10 9 12 16 26 16 30 0 12 -38 10 -58 -3 -13 -8 -27 -7 -56 5 -51 21 -89 20
-109 -2z"/>
<path d="M368 983 c-10 -2 -18 -8 -18 -12 0 -5 -12 -8 -26 -8 -36 0 -62 -28
-48 -51 24 -38 74 -21 74 25 0 15 5 23 13 20 15 -5 47 10 47 23 0 10 -12 11
-42 3z"/>
<path d="M610 976 c6 -8 18 -12 27 -9 12 5 12 7 1 14 -7 5 -19 9 -27 9 -11 0
-11 -3 -1 -14z"/>
<path d="M410 955 c-14 -17 -5 -51 15 -59 35 -13 63 21 45 55 -13 23 -43 25
-60 4z"/>
<path d="M536 944 c-8 -21 11 -44 35 -44 19 0 35 33 24 50 -10 16 -52 12 -59
-6z"/>
<path d="M670 944 c-11 -12 -10 -18 3 -32 16 -15 18 -15 33 0 19 18 12 48 -9
48 -8 0 -20 -7 -27 -16z"/>
<path d="M200 900 c-10 -6 -11 -10 -2 -10 6 0 12 -9 12 -21 0 -16 -5 -20 -24
-17 -31 4 -55 -17 -49 -43 5 -17 2 -20 -18 -17 -18 2 -27 -4 -38 -27 -8 -16
-18 -32 -22 -35 -17 -12 -48 -123 -55 -195 -9 -95 8 -174 56 -268 26 -52 42
-73 58 -75 13 -2 22 -11 22 -21 0 -24 20 -41 48 -41 17 0 22 -4 19 -14 -7 -17
23 -46 46 -46 9 0 17 -4 17 -8 0 -10 45 -32 65 -32 18 0 20 31 3 48 -7 7 -20
12 -30 12 -11 0 -18 7 -18 18 0 23 -19 42 -42 42 -29 0 -24 45 5 46 20 1 23
-2 19 -22 -6 -30 38 -55 63 -34 32 27 6 87 -32 73 -8 -3 -13 4 -13 19 0 29
-17 48 -42 48 -11 0 -18 7 -18 20 0 28 38 27 42 -1 8 -53 70 -49 76 5 3 22 -1
27 -27 32 -25 5 -31 12 -31 31 0 15 5 23 13 20 21 -8 47 13 47 37 0 28 -24 51
-45 42 -11 -4 -15 1 -15 17 0 28 -17 47 -42 47 -11 0 -18 7 -18 20 0 11 4 20
9 20 5 0 17 3 25 6 12 4 15 2 10 -9 -8 -22 13 -57 35 -57 48 0 56 73 9 78 -22
3 -28 9 -28 27 0 16 6 25 21 27 49 7 50 69 2 76 -13 2 -23 13 -26 28 -3 19 -1
24 10 20 23 -9 53 13 53 38 0 28 -24 51 -45 42 -11 -4 -15 1 -15 17 0 13 -5
28 -12 35 -14 14 -57 15 -78 2z m73 -97 c3 -19 0 -23 -19 -23 -18 0 -24 6 -24
23 0 31 37 31 43 0z m-63 -63 c0 -13 -7 -20 -20 -20 -13 0 -20 7 -20 20 0 13
7 20 20 20 13 0 20 -7 20 -20z m62 -63 c4 -20 1 -23 -19 -19 -14 3 -23 11 -23
23 0 28 37 25 42 -4z m-132 -3 c0 -17 -22 -14 -28 4 -2 7 3 12 12 12 9 0 16
-7 16 -16z m70 -60 c0 -8 -9 -14 -20 -14 -22 0 -28 26 -7 33 16 6 27 -1 27
-19z m-140 0 c0 -8 -5 -12 -10 -9 -6 4 -8 11 -5 16 9 14 15 11 15 -7z m70 -59
c0 -8 -7 -15 -15 -15 -16 0 -20 12 -8 23 11 12 23 8 23 -8z m70 -65 c0 -13 -7
-20 -20 -20 -13 0 -20 7 -20 20 0 13 7 20 20 20 13 0 20 -7 20 -20z m63 -67
c3 -19 0 -23 -19 -23 -18 0 -24 6 -24 23 0 31 37 31 43 0z m-133 2 c0 -8 -7
-15 -15 -15 -8 0 -15 7 -15 15 0 8 7 15 15 15 8 0 15 -7 15 -15z m70 -66 c0
-25 -33 -22 -38 4 -2 12 3 17 17 17 15 0 21 -6 21 -21z m-140 1 c0 -5 -4 -10
-10 -10 -5 0 -10 5 -10 10 0 6 5 10 10 10 6 0 10 -4 10 -10z m70 -60 c0 -11
-4 -20 -9 -20 -14 0 -23 18 -16 30 10 17 25 11 25 -10z m70 -60 c0 -13 -7 -20
-20 -20 -19 0 -27 20 -13 33 13 14 33 6 33 -13z"/>
<path d="M350 896 c-6 -8 -10 -25 -8 -38 2 -18 9 -23 33 -23 24 0 31 5 33 23
4 25 -13 52 -33 52 -7 0 -18 -7 -25 -14z"/>
<path d="M1085 898 c-33 -18 -45 -40 -45 -85 0 -33 6 -50 25 -68 23 -24 31
-25 135 -25 116 0 150 -9 150 -38 0 -37 -20 -42 -167 -42 l-143 0 0 -30 0 -30
161 0 161 0 29 29 c21 22 29 39 29 66 0 82 -29 98 -185 105 l-120 5 0 30 0 30
143 3 142 3 0 29 0 30 -147 0 c-88 0 -156 -5 -168 -12z"/>
<path d="M1547 896 c-20 -8 -43 -19 -51 -25 -45 -38 -60 -149 -28 -211 30 -57
87 -80 202 -80 52 0 111 5 131 10 75 21 118 108 98 200 -20 88 -77 120 -219
119 -54 0 -111 -6 -133 -13z m259 -79 c13 -16 22 -33 19 -38 -4 -5 -71 -9
-151 -9 -150 0 -162 4 -131 42 25 32 52 38 145 36 89 -3 95 -4 118 -31z m19
-107 c4 -6 -8 -24 -25 -41 l-30 -31 -101 4 c-92 3 -103 5 -120 27 -39 48 -31
51 125 51 87 0 147 -4 151 -10z"/>
<path d="M1950 745 l0 -165 155 0 155 0 0 30 0 29 -117 3 -118 3 -3 133 -3
132 -34 0 -35 0 0 -165z"/>
<path d="M2310 785 c0 -191 12 -205 190 -205 177 0 190 15 190 211 l0 119 -35
0 -35 0 0 -107 c0 -67 -5 -118 -13 -133 -12 -23 -18 -25 -102 -28 -122 -4
-125 0 -125 154 l0 114 -35 0 -35 0 0 -125z"/>
<path d="M2823 891 c-69 -32 -101 -106 -82 -191 17 -74 78 -120 160 -120 23 0
26 -4 21 -25 -4 -22 -1 -25 22 -25 14 0 26 -4 26 -10 0 -5 -13 -10 -30 -10
-20 0 -30 -5 -30 -16 0 -12 10 -14 48 -12 45 3 47 4 47 33 0 20 -7 33 -22 41
-33 16 -17 24 49 24 58 0 58 0 58 30 l0 30 -111 0 c-109 0 -111 0 -140 29 -39
39 -41 106 -5 148 24 27 27 28 140 31 l116 4 0 29 0 29 -112 0 c-89 0 -122 -4
-155 -19z"/>
<path d="M3220 901 c-71 -22 -110 -78 -110 -158 0 -66 27 -113 80 -140 37 -19
60 -23 140 -23 52 0 111 5 131 10 139 39 140 262 0 309 -38 12 -202 14 -241 2z
m246 -84 c13 -16 22 -33 19 -38 -4 -5 -71 -9 -151 -9 -150 0 -162 4 -131 42
25 32 52 38 145 36 89 -3 95 -4 118 -31z m19 -107 c4 -6 -8 -24 -25 -41 l-30
-31 -101 4 c-92 3 -103 5 -120 27 -39 48 -31 51 125 51 87 0 147 -4 151 -10z"/>
<path d="M3610 745 l0 -165 180 0 180 0 0 30 0 30 -140 0 -140 0 0 40 0 40
125 0 125 0 0 30 0 30 -125 0 -125 0 0 35 0 35 140 0 140 0 0 30 0 30 -180 0
-180 0 0 -165z"/>
<path d="M4052 900 c-29 -12 -55 -73 -47 -111 13 -56 44 -69 171 -69 89 0 116
-3 128 -16 9 -8 16 -21 16 -28 0 -31 -25 -36 -167 -36 l-143 0 0 -30 0 -30
161 0 161 0 29 29 c21 22 29 39 29 66 0 82 -29 98 -185 105 l-120 5 0 30 0 30
143 3 142 3 0 29 0 30 -147 -1 c-82 0 -158 -4 -171 -9z"/>
<path d="M477 893 c-12 -11 -8 -40 7 -52 28 -23 68 17 45 45 -12 15 -41 19
-52 7z"/>
<path d="M604 885 c-9 -23 3 -45 26 -45 25 0 37 25 20 45 -16 19 -39 19 -46 0z"/>
<path d="M734 875 c-8 -19 12 -36 33 -28 19 7 12 37 -10 41 -9 2 -20 -4 -23
-13z"/>
<path d="M409 824 c-9 -11 -10 -20 -2 -32 15 -24 44 -27 59 -7 28 38 -27 75
-57 39z"/>
<path d="M540 826 c-27 -33 18 -72 48 -42 13 13 14 20 6 34 -15 23 -38 26 -54
8z"/>
<path d="M667 817 c-8 -21 8 -39 29 -35 27 5 25 42 -2 46 -12 2 -24 -3 -27
-11z"/>
<path d="M803 814 c-7 -19 11 -39 26 -30 16 10 13 33 -4 40 -9 3 -18 -1 -22
-10z"/>
<path d="M347 774 c-13 -13 -7 -51 9 -65 23 -19 49 1 49 37 0 24 -5 30 -25 32
-14 2 -29 0 -33 -4z"/>
<path d="M482 768 c-30 -30 1 -73 36 -51 23 14 25 29 7 47 -20 19 -27 20 -43
4z"/>
<path d="M604 755 c-8 -21 2 -45 19 -45 20 0 40 27 33 45 -7 19 -45 20 -52 0z"/>
<path d="M740 760 c-18 -11 -4 -42 17 -38 10 2 19 10 21 19 4 19 -19 31 -38
19z"/>
<path d="M866 751 c-3 -5 1 -14 8 -20 16 -13 32 2 21 19 -8 12 -22 13 -29 1z"/>
<path d="M418 709 c-33 -19 -15 -69 24 -69 15 0 38 27 38 44 0 7 -31 36 -38
36 -4 0 -15 -5 -24 -11z"/>
<path d="M541 696 c-17 -20 -3 -46 24 -46 29 0 38 13 30 40 -7 23 -37 26 -54
6z"/>
<path d="M670 695 c-10 -12 -10 -18 0 -30 16 -19 39 -19 46 0 6 15 -11 45 -26
45 -4 0 -13 -7 -20 -15z"/>
<path d="M807 694 c-14 -14 -7 -35 11 -32 9 2 17 10 17 17 0 16 -18 25 -28 15z"/>
<path d="M935 680 c-3 -5 1 -10 10 -10 9 0 13 5 10 10 -3 6 -8 10 -10 10 -2 0
-7 -4 -10 -10z"/>
<path d="M355 647 c-27 -20 -16 -61 17 -65 28 -3 55 28 43 48 -13 21 -42 29
-60 17z"/>
<path d="M474 636 c-11 -28 1 -51 25 -51 32 0 49 28 32 49 -17 20 -50 21 -57
2z"/>
<path d="M603 624 c-3 -8 1 -22 9 -30 12 -12 17 -12 33 -1 23 17 14 47 -15 47
-11 0 -23 -7 -27 -16z"/>
<path d="M734 625 c-4 -9 -2 -21 4 -27 15 -15 44 -1 40 19 -4 23 -36 29 -44 8z"/>
<path d="M865 621 c-7 -12 12 -24 25 -16 11 7 4 25 -10 25 -5 0 -11 -4 -15 -9z"/>
<path d="M412 578 c-16 -16 -15 -33 4 -52 23 -24 56 -3 52 32 -3 30 -35 41
-56 20z"/>
<path d="M545 576 c-20 -15 -15 -43 10 -52 18 -7 45 12 45 32 0 22 -35 35 -55
20z"/>
<path d="M669 564 c-11 -14 -10 -18 6 -30 16 -12 21 -12 33 0 17 17 9 46 -11
46 -8 0 -21 -7 -28 -16z"/>
<path d="M802 553 c4 -21 33 -25 33 -3 0 8 -8 16 -18 18 -14 3 -18 -1 -15 -15z"/>
<path d="M935 561 c-3 -5 -1 -12 5 -16 5 -3 10 1 10 9 0 18 -6 21 -15 7z"/>
<path d="M350 516 c-6 -8 -10 -25 -8 -38 2 -18 9 -23 33 -23 24 0 31 5 33 23
4 25 -13 52 -33 52 -7 0 -18 -7 -25 -14z"/>
<path d="M477 513 c-12 -11 -8 -40 7 -52 26 -22 63 10 50 44 -6 15 -45 21 -57
8z"/>
<path d="M604 506 c-10 -26 4 -48 28 -44 17 2 23 10 23 28 0 18 -6 26 -23 28
-13 2 -25 -3 -28 -12z"/>
<path d="M734 499 c-3 -6 0 -17 8 -25 13 -13 16 -13 27 0 7 8 10 20 6 26 -8
13 -32 13 -41 -1z"/>
<path d="M870 500 c-12 -7 -12 -12 -2 -22 9 -9 15 -9 24 0 16 16 -2 34 -22 22z"/>
<path d="M405 440 c-14 -44 44 -69 65 -29 9 15 8 24 -1 35 -18 21 -57 18 -64
-6z"/>
<path d="M540 446 c-27 -33 18 -72 48 -42 13 13 14 20 6 34 -15 23 -38 26 -54
8z"/>
<path d="M667 437 c-8 -21 8 -39 29 -35 27 5 25 42 -2 46 -12 2 -24 -3 -27
-11z"/>
<path d="M803 434 c-8 -20 8 -36 26 -25 15 10 8 41 -9 41 -6 0 -13 -7 -17 -16z"/>
<path d="M935 430 c-3 -5 -1 -10 4 -10 6 0 11 5 11 10 0 6 -2 10 -4 10 -3 0
-8 -4 -11 -10z"/>
<path d="M347 394 c-13 -13 -7 -51 9 -65 23 -19 49 1 49 37 0 24 -5 30 -25 32
-14 2 -29 0 -33 -4z"/>
<path d="M482 391 c-8 -4 -12 -19 -10 -32 4 -29 45 -34 61 -7 19 30 -19 60
-51 39z"/>
<path d="M607 383 c-13 -12 -7 -41 10 -47 21 -8 48 17 40 38 -6 16 -38 22 -50
9z"/>
<path d="M734 375 c-4 -9 -2 -21 4 -27 15 -15 44 -1 40 19 -4 23 -36 29 -44 8z"/>
<path d="M865 370 c-3 -6 1 -13 10 -16 19 -8 30 0 20 15 -8 14 -22 14 -30 1z"/>
<path d="M412 328 c-23 -23 -7 -68 24 -68 14 0 44 27 44 40 0 13 -30 40 -44
40 -6 0 -17 -5 -24 -12z"/>
<path d="M536 315 c-9 -24 4 -45 29 -45 29 0 38 13 30 40 -8 24 -50 27 -59 5z"/>
<path d="M670 314 c-11 -12 -11 -18 2 -30 16 -16 48 -9 48 10 0 13 -20 36 -31
36 -4 0 -12 -7 -19 -16z"/>
<path d="M800 300 c0 -15 5 -20 18 -18 22 4 22 32 0 36 -13 2 -18 -3 -18 -18z"/>
<path d="M935 300 c3 -5 10 -10 16 -10 5 0 9 5 9 10 0 6 -7 10 -16 10 -8 0
-12 -4 -9 -10z"/>
<path d="M350 266 c-20 -25 -8 -61 22 -64 36 -4 53 26 32 56 -18 25 -37 28
-54 8z"/>
<path d="M477 264 c-15 -16 -7 -53 14 -59 30 -10 58 19 43 43 -12 18 -45 28
-57 16z"/>
<path d="M612 261 c-21 -13 -10 -46 16 -49 27 -4 40 22 22 43 -14 17 -20 18
-38 6z"/>
<path d="M734 245 c-4 -9 -2 -21 4 -27 15 -15 44 -1 40 19 -4 23 -36 29 -44 8z"/>
<path d="M865 241 c-3 -5 -1 -12 5 -16 12 -7 30 2 30 16 0 12 -27 12 -35 0z"/>
<path d="M1470 140 l0 -90 55 0 c65 0 74 17 13 22 -38 3 -43 6 -43 28 0 22 5
25 43 28 23 2 42 7 42 12 0 5 -19 10 -42 12 -38 3 -43 6 -43 28 0 22 5 25 43
28 61 5 52 22 -13 22 l-55 0 0 -90z"/>
<path d="M1640 140 c0 -53 4 -90 10 -90 6 0 10 35 11 83 l0 82 26 -82 c23 -73
29 -83 50 -83 22 0 23 2 23 91 0 68 -3 90 -12 87 -8 -3 -15 -32 -18 -78 l-5
-74 -23 77 c-18 63 -26 77 -42 77 -19 0 -20 -7 -20 -90z"/>
<path d="M1810 140 l0 -90 55 0 c30 0 55 5 55 10 0 6 -20 10 -45 10 -43 0 -45
1 -45 30 0 29 2 30 45 30 25 0 45 5 45 10 0 6 -20 10 -45 10 -43 0 -45 1 -45
30 0 29 2 30 45 30 25 0 45 5 45 10 0 6 -25 10 -55 10 l-55 0 0 -90z"/>
<path d="M1980 140 c0 -53 4 -90 10 -90 6 0 10 16 10 35 0 33 2 35 35 35 33 0
35 -2 35 -35 0 -19 5 -35 11 -35 8 0 10 17 7 49 -3 27 -1 56 4 66 7 11 5 24
-6 41 -13 19 -25 24 -61 24 l-45 0 0 -90z m88 41 c4 -26 -12 -41 -45 -41 -20
0 -23 5 -23 36 0 34 1 35 33 32 25 -2 33 -8 35 -27z"/>
<path d="M2157 212 c-12 -13 -17 -36 -17 -75 0 -71 16 -89 76 -85 l44 3 0 43
c0 41 -1 42 -34 42 -19 0 -38 -4 -41 -10 -4 -6 7 -10 25 -10 27 0 31 -3 28
-22 -3 -26 -41 -36 -64 -18 -17 15 -19 101 -2 118 20 20 59 15 65 -8 3 -11 9
-20 14 -20 13 0 11 34 -3 48 -18 18 -73 14 -91 -6z"/>
<path d="M2310 220 c0 -5 11 -10 25 -10 24 0 25 -2 25 -70 0 -68 -1 -70 -25
-70 -14 0 -25 -4 -25 -10 0 -6 27 -10 60 -10 33 0 60 4 60 10 0 6 -11 10 -25
10 -24 0 -25 2 -25 70 0 68 1 70 25 70 14 0 25 5 25 10 0 6 -27 10 -60 10 -33
0 -60 -4 -60 -10z"/>
<path d="M2515 218 c-15 -42 -45 -145 -45 -155 0 -21 17 -15 23 7 7 29 83 29
92 0 6 -18 25 -29 25 -14 0 3 -12 44 -26 90 -20 68 -29 84 -45 84 -11 0 -22
-6 -24 -12z m44 -57 c13 -40 8 -51 -25 -51 -27 0 -29 7 -12 62 12 42 19 40 37
-11z"/>
<path d="M2820 140 l0 -90 55 0 c30 0 55 5 55 10 0 6 -20 10 -45 10 -43 0 -45
1 -45 30 0 29 2 30 45 30 25 0 45 5 45 10 0 6 -20 10 -45 10 -43 0 -45 1 -45
30 0 29 2 30 45 30 25 0 45 5 45 10 0 6 -25 10 -55 10 l-55 0 0 -90z"/>
<path d="M3160 140 c0 -53 4 -90 10 -90 6 0 10 16 10 35 0 33 2 35 35 35 33 0
35 -2 35 -35 0 -19 5 -35 11 -35 8 0 10 17 7 49 -3 27 -1 56 4 66 7 11 5 24
-6 41 -13 19 -25 24 -61 24 l-45 0 0 -90z m88 41 c4 -26 -12 -41 -45 -41 -20
0 -23 5 -23 36 0 34 1 35 33 32 25 -2 33 -8 35 -27z"/>
<path d="M3330 140 l0 -90 55 0 c30 0 55 5 55 10 0 6 -20 10 -45 10 -43 0 -45
1 -45 30 0 28 2 30 40 30 22 0 40 5 40 10 0 6 -18 10 -40 10 -38 0 -40 2 -40
30 0 28 2 30 39 30 22 0 43 5 46 10 4 6 -15 10 -49 10 l-56 0 0 -90z"/>
<path d="M3495 140 l0 -90 42 0 c58 0 73 18 73 90 0 72 -15 90 -73 90 l-42 0
0 -90z m83 58 c16 -16 16 -100 0 -116 -7 -7 -20 -12 -30 -12 -16 0 -18 9 -18
70 0 61 2 70 18 70 10 0 23 -5 30 -12z"/>
<path d="M3660 140 l0 -90 55 0 c65 0 74 17 13 22 -38 3 -43 6 -43 28 0 22 5
25 43 28 23 2 42 7 42 12 0 5 -19 10 -42 12 -38 3 -43 6 -43 28 0 22 5 25 43
28 61 5 52 22 -13 22 l-55 0 0 -90z"/>
<path d="M3842 218 c-33 -33 -3 -77 61 -92 22 -5 28 -12 25 -29 -4 -32 -69
-32 -83 1 -12 27 -25 29 -25 4 0 -29 33 -52 72 -52 42 0 61 19 56 57 -2 23
-11 30 -48 43 -33 11 -45 21 -45 35 0 30 61 34 70 6 7 -24 25 -28 25 -7 0 39
-79 63 -108 34z"/>
<path d="M410 195 c-6 -8 -9 -23 -5 -35 8 -25 51 -27 64 -2 20 38 -31 71 -59
37z"/>
<path d="M540 196 c-27 -33 18 -72 48 -42 13 13 14 20 6 34 -15 23 -38 26 -54
8z"/>
<path d="M667 187 c-8 -21 8 -39 29 -35 27 5 25 42 -2 46 -12 2 -24 -3 -27
-11z"/>
<path d="M802 173 c2 -10 10 -18 18 -18 8 0 16 8 18 18 2 12 -3 17 -18 17 -15
0 -20 -5 -18 -17z"/>
<path d="M352 138 c-18 -18 -15 -56 7 -63 30 -9 51 5 51 35 0 36 -34 52 -58
28z"/>
<path d="M480 135 c-18 -21 -8 -50 19 -53 37 -6 52 26 25 52 -19 20 -28 20
-44 1z"/>
<path d="M604 126 c-10 -26 4 -48 28 -44 17 2 23 10 23 28 0 18 -6 26 -23 28
-13 2 -25 -3 -28 -12z"/>
<path d="M741 131 c-17 -11 -7 -41 13 -41 22 0 30 20 15 36 -9 8 -19 10 -28 5z"/>
<path d="M405 60 c-14 -44 44 -69 65 -29 9 15 8 24 -1 35 -18 21 -57 18 -64
-6z"/>
<path d="M542 68 c-30 -30 9 -69 44 -43 15 11 17 17 8 32 -14 23 -36 27 -52
11z"/>
<path d="M670 65 c-19 -23 1 -40 30 -25 17 9 19 14 9 26 -15 18 -23 18 -39 -1z"/>
<path d="M378 13 c7 -3 16 -2 19 1 4 3 -2 6 -13 5 -11 0 -14 -3 -6 -6z"/>
<path d="M480 10 c-11 -7 -7 -10 18 -10 20 0 31 4 27 10 -8 13 -26 13 -45 0z"/>
</g>
</svg>
